<?xml version="1.0" encoding="UTF-8"?>
<svg xmlns:svg="http://www.w3.org/2000/svg" xmlns="http://www.w3.org/2000/svg" version="1.1" viewBox="0 0 256 256" height="256" width="256">
 <g style="display:inline"><flowRoot xml:space="preserve" style="font-style:normal;font-weight:normal;font-size:11.30817509px;line-height:125%;font-family:sans-serif;letter-spacing:0px;word-spacing:0px;fill:#000000;fill-opacity:1;stroke:none;stroke-width:1px;stroke-linecap:butt;stroke-linejoin:miter;stroke-opacity:1"><flowRegion><rect width="27.866573" height="25.847258" x="33.087978" y="52.977592" /></flowRegion><flowPara /></flowRoot><g style="display:inline"><circle style="opacity:1;fill:#ffffff;fill-opacity:0;stroke:#ff8c4b;stroke-width:32.83650589;stroke-miterlimit:4;stroke-dasharray:none;stroke-opacity:1" cx="128.35934" cy="128.1741" r="111.56214" /><g style="fill:#ff8c4b;fill-opacity:1" transform="matrix(4.3135447,-2.4317507,2.4317507,4.3135447,-76.398019,110.75265)"><path style="fill:#ff8c4b;fill-opacity:1;stroke:#000000;stroke-miterlimit:10" d="" /><path style="fill:#ff8c4b;fill-opacity:1;stroke:#000000;stroke-miterlimit:10" d="" /></g></g></g><g style="display:inline"><flowRoot xml:space="preserve" style="font-style:normal;font-weight:normal;font-size:11.30817509px;line-height:125%;font-family:sans-serif;letter-spacing:0px;word-spacing:0px;fill:#000000;fill-opacity:1;stroke:none;stroke-width:1px;stroke-linecap:butt;stroke-linejoin:miter;stroke-opacity:1"><flowRegion><rect width="27.866573" height="25.847258" x="33.087978" y="52.977592" /></flowRegion><flowPara /></flowRoot><g style="display:inline;stroke:#ffffff;stroke-opacity:1;stroke-width:9.2;stroke-miterlimit:4;stroke-dasharray:none"><g style="fill:#ff8c4b;fill-opacity:1;stroke:#ffffff;stroke-opacity:1;stroke-width:0.85791949;stroke-miterlimit:4;stroke-dasharray:none" transform="matrix(4.3135447,-2.4317507,2.4317507,4.3135447,-76.398019,110.75265)"><path style="fill:#ff8c4b;fill-opacity:1;stroke:#ffffff;stroke-miterlimit:4;stroke-opacity:1;stroke-width:0.85791949;stroke-dasharray:none" d="" /><path style="fill:#ff8c4b;fill-opacity:1;stroke:#ffffff;stroke-miterlimit:4;stroke-opacity:1;stroke-width:0.85791949;stroke-dasharray:none" d="" /><path style="fill:#ffceb3;fill-opacity:1;stroke:#ffffff;stroke-opacity:1;stroke-width:0.85791949;stroke-miterlimit:4;stroke-dasharray:none" d="m 31.097551,28.079384 c -0.306314,-2.723868 -6.011437,-3.480212 -6.60625,-2.614062 0.549996,3.150548 3.237092,4.313351 6.025,3.972265 -1.434516,2.286071 0.738334,10.924036 2.229021,9.194613 4.50242,-1.048591 -2.666208,1.772779 2.051154,1.036355 3.292147,-0.907069 2.112343,-11.619837 6.2542,-9.632921 3.527808,1.204099 7.164003,-5.938551 1.721289,-3.97207 -2.837881,0.11727 -4.053958,4.253079 -6.246289,1.087695 -1.763354,-0.842399 -4.052326,-0.470657 -5.428125,0.928125 z" /><path style="fill:#ff8c4b;fill-opacity:1;stroke:#ffffff;stroke-width:0.85791949;stroke-miterlimit:4;stroke-dasharray:none;stroke-opacity:1" d="m 31.4,27.9 c 0.33035,-6.031638 -5.822737,-2.95848 -9.3,-3.3 -3.754628,-1.204536 -9.896728,-4.700043 -11.286865,-6.280322 3.920636,0.595497 6.680067,4.242169 10.711865,4.530322 1.803676,-2.427146 -3.193076,-5.211555 -3.018115,-5.276221 4.418117,-0.758533 4.180054,6.582518 8.286499,5.281055 2.149693,-0.272841 6.382699,-0.236697 2.993408,-2.76709 -1.613566,-1.142664 -5.813776,-3.238414 -5.73894,-3.988721 1.682169,1.104735 7.443621,3.593724 4.806835,-0.600586 -0.324173,-1.976976 -4.642005,-5.463682 -3.967456,-5.18562 5.092664,2.605941 7.142142,8.638854 7.972339,13.952613 C 32.85087,26.185675 33.593819,27.383058 31.4,27.9 Z" /><path style="fill:#ff8c4b;fill-opacity:1;stroke:#ffffff;stroke-width:0.85791949;stroke-miterlimit:4;stroke-dasharray:none;stroke-opacity:1" d="m 37.8,28.5 c -0.481863,-6.26902 5.638693,-3.518827 9.3,-3.7 3.754628,-1.204536 9.896728,-4.700043 11.286865,-6.280322 C 54.466229,19.115175 51.706798,22.761847 47.675,23.05 c -1.803676,-2.427146 3.193076,-5.211555 3.018115,-5.276221 -4.418117,-0.758533 -4.180054,6.582518 -8.286499,5.281055 -2.149693,-0.272841 -6.382699,-0.236697 -2.993408,-2.76709 1.613566,-1.142664 5.813776,-3.238414 5.73894,-3.988721 -1.682169,1.104735 -7.443621,3.593724 -4.806836,-0.600586 0.324174,-1.976976 4.642006,-5.463682 3.967457,-5.18562 C 39.220105,13.118758 37.170627,19.151671 36.34043,24.46543 36.247677,26.41274 35.787425,27.621596 37.8,28.5 Z" /></g></g></g><g style="display:inline"><flowRoot style="font-style:normal;font-weight:normal;font-size:11.30817509px;line-height:125%;font-family:sans-serif;letter-spacing:0px;word-spacing:0px;fill:#000000;fill-opacity:1;stroke:none;stroke-width:1px;stroke-linecap:butt;stroke-linejoin:miter;stroke-opacity:1" xml:space="preserve"><flowRegion><rect y="52.977592" x="33.087978" height="25.847258" width="27.866573" /></flowRegion><flowPara /></flowRoot><g style="display:inline"><g transform="matrix(4.3135447,-2.4317507,2.4317507,4.3135447,-76.398019,110.75265)" style="fill:#ff8c4b;fill-opacity:1"><path d="" style="fill:#ff8c4b;fill-opacity:1;stroke:#000000;stroke-miterlimit:10" /><path d="" style="fill:#ff8c4b;fill-opacity:1;stroke:#000000;stroke-miterlimit:10" /><path d="m 31.097551,28.079384 c -0.306314,-2.723868 -6.011437,-3.480212 -6.60625,-2.614062 0.549996,3.150548 3.237092,4.313351 6.025,3.972265 -1.434516,2.286071 0.738334,10.924036 2.229021,9.194613 4.50242,-1.048591 -2.666208,1.772779 2.051154,1.036355 3.292147,-0.907069 2.112343,-11.619837 6.2542,-9.632921 3.527808,1.204099 7.164003,-5.938551 1.721289,-3.97207 -2.837881,0.11727 -4.053958,4.253079 -6.246289,1.087695 -1.763354,-0.842399 -4.052326,-0.470657 -5.428125,0.928125 z" style="fill:#ffceb3;fill-opacity:1" /><path d="m 31.4,27.9 c 0.33035,-6.031638 -5.822737,-2.95848 -9.3,-3.3 -3.754628,-1.204536 -9.896728,-4.700043 -11.286865,-6.280322 3.920636,0.595497 6.680067,4.242169 10.711865,4.530322 1.803676,-2.427146 -3.193076,-5.211555 -3.018115,-5.276221 4.418117,-0.758533 4.180054,6.582518 8.286499,5.281055 2.149693,-0.272841 6.382699,-0.236697 2.993408,-2.76709 -1.613566,-1.142664 -5.813776,-3.238414 -5.73894,-3.988721 1.682169,1.104735 7.443621,3.593724 4.806835,-0.600586 -0.324173,-1.976976 -4.642005,-5.463682 -3.967456,-5.18562 5.092664,2.605941 7.142142,8.638854 7.972339,13.952613 C 32.85087,26.185675 33.593819,27.383058 31.4,27.9 Z" style="fill:#ff8c4b;fill-opacity:1;stroke:none;stroke-width:0.40389553;stroke-miterlimit:4;stroke-dasharray:none;stroke-opacity:1" /><path d="m 37.8,28.5 c -0.481863,-6.26902 5.638693,-3.518827 9.3,-3.7 3.754628,-1.204536 9.896728,-4.700043 11.286865,-6.280322 C 54.466229,19.115175 51.706798,22.761847 47.675,23.05 c -1.803676,-2.427146 3.193076,-5.211555 3.018115,-5.276221 -4.418117,-0.758533 -4.180054,6.582518 -8.286499,5.281055 -2.149693,-0.272841 -6.382699,-0.236697 -2.993408,-2.76709 1.613566,-1.142664 5.813776,-3.238414 5.73894,-3.988721 -1.682169,1.104735 -7.443621,3.593724 -4.806836,-0.600586 0.324174,-1.976976 4.642006,-5.463682 3.967457,-5.18562 C 39.220105,13.118758 37.170627,19.151671 36.34043,24.46543 36.247677,26.41274 35.787425,27.621596 37.8,28.5 Z" style="fill:#ff8c4b;fill-opacity:1;stroke:none;stroke-width:0.40389553;stroke-miterlimit:4;stroke-dasharray:none;stroke-opacity:1" /></g></g></g>
</svg>
